
    <svg width="64" height="64" viewBox="0 0 64 64" fill="none" xmlns="http://www.w3.org/2000/svg">
    <rect width="64" height="64" rx="12" fill="url(#paint0_linear_1_2)"/>
    <path d="M20.48 18H27.14C28.9167 18 30.3233 18.4417 31.36 19.325C32.3967 20.2083 32.915 21.4167 32.915 22.95C32.915 24.4833 32.3967 25.6917 31.36 26.575C30.3233 27.4583 28.9167 27.9 27.14 27.9H23.3V34.875H20.48V18ZM23.3 25.475H26.915C27.8517 25.475 28.5733 25.2208 29.08 24.7125C29.5867 24.2042 29.84 23.5333 29.84 22.7C29.84 21.8667 29.5867 21.1958 29.08 20.6875C28.5733 20.1792 27.8517 19.925 26.915 19.925H23.3V25.475Z" fill="white"/>
    <path d="M35.7666 18H42.4266C44.1058 18 45.4616 18.4208 46.4941 19.2625C47.5266 20.1042 48.0428 21.2417 48.0428 22.675C48.0428 23.575 47.8391 24.3792 47.4316 25.0875C47.0241 25.7958 46.4758 26.3583 45.7866 26.775L48.6116 34.875H45.4366L42.8316 27.075H38.5866V34.875H35.7666V18ZM38.5866 25.075H42.2016C43.1383 25.075 43.86 24.8208 44.3666 24.3125C44.8733 23.8042 45.1266 23.1333 45.1266 22.3C45.1266 21.4667 44.8733 20.7958 44.3666 20.2875C43.86 19.7792 43.1383 19.525 42.2016 19.525H38.5866V25.075Z" fill="white"/>
    <path d="M20 40H44V44H20V40Z" fill="white" fill-opacity="0.8"/>
    <defs>
    <linearGradient id="paint0_linear_1_2" x1="0" y1="0" x2="64" y2="64" gradientUnits="userSpaceOnUse">
    <stop stop-color="#FF8C00"/>
    <stop offset="1" stop-color="#FFA500"/>
    </linearGradient>
    </defs>
    </svg>
  